<?xml version="1.0" encoding="UTF-8"?>
<svg width="438px" height="110px" viewBox="0 0 438 110" version="1.1" xmlns="http://www.w3.org/2000/svg" xmlns:xlink="http://www.w3.org/1999/xlink">
    <title>Group</title>
    <g id="Page-1" stroke="none" stroke-width="1" fill="none" fill-rule="evenodd">
        <g id="Artboard-Copy-2" transform="translate(-12.000000, -13.000000)">
            <g id="Group" transform="translate(12.000000, 13.000000)">
                <g id="rdf">
                    <ellipse id="Oval" stroke="#000000" stroke-width="3" fill="#FFFFFF" cx="67" cy="32.5" rx="65.5" ry="31"></ellipse>
                    <ellipse id="Oval-Copy" stroke="#000000" stroke-width="3" fill="#FFFFFF" cx="371" cy="32.5" rx="65.5" ry="31"></ellipse>
                    <text id="Mars" font-family="MonaspaceNeon-Medium, Monaspace Neon" font-size="24" font-weight="400" fill="#000000">
                        <tspan x="37.24" y="28">Mars</tspan>
                    </text>
                    <text id="a-planet" font-family="MonaspaceNeon-Medium, Monaspace Neon" font-size="18" font-weight="400" fill="#000000">
                        <tspan x="22.36" y="49">a planet</tspan>
                    </text>
                    <text id="a-star" font-family="MonaspaceNeon-Medium, Monaspace Neon" font-size="18" font-weight="400" fill="#000000">
                        <tspan x="337.52" y="49">a star</tspan>
                    </text>
                    <text id="Sun" font-family="MonaspaceNeon-Medium, Monaspace Neon" font-size="24" font-weight="400" fill="#000000">
                        <tspan x="348.68" y="31">Sun</tspan>
                    </text>
                    <path id="Path-4" d="M286,23 L305,32.5 L286,42 L286,34 L134,34 L134,31 L286,31 L286,23 Z" fill="#000000" fill-rule="nonzero"></path>
                </g>
                <text id="https://www.wikidata" font-family="MonaspaceNeon-Medium, Monaspace Neon" font-size="12" font-weight="400" fill="#000000">
                    <tspan x="60.04" y="107">https://www.wikidata.org/wiki/Property:P397</tspan>
                </text>
                <text id="major-astronomical-b" font-family="MonaspaceNeon-SemiBold, Monaspace Neon" font-size="16" font-weight="500" fill="#000000">
                    <tspan x="7.22" y="90">major astronomical body the item belongs to</tspan>
                </text>
                <path id="Path-5" d="M212.62044,23.0007635 C217.866724,23.0672807 222.065754,27.3741567 221.999237,32.6204401 C221.93919,37.356359 218.42367,41.2388698 213.880944,41.9005094 L213.499879,71.9545292 L210.500121,71.9164954 L210.880164,41.8623041 C206.356169,41.0852899 202.940722,37.1151309 203.000763,32.3795599 C203.067281,27.1332764 207.374157,22.9342462 212.62044,23.0007635 Z M212.582406,26.0005224 C208.992844,25.9550106 206.046034,28.8280312 206.000522,32.4175936 C205.955011,36.007156 208.828031,38.9539658 212.417594,38.9994776 C216.007156,39.0449894 218.953966,36.1719688 218.999478,32.5824064 C219.044989,28.992844 216.171969,26.0460342 212.582406,26.0005224 Z" fill="#000000" fill-rule="nonzero"></path>
            </g>
        </g>
    </g>
</svg>